<mxfile host="Electron" agent="Mozilla/5.0 (Windows NT 10.0; Win64; x64) AppleWebKit/537.36 (KHTML, like Gecko) draw.io/24.7.17 Chrome/128.0.6613.36 Electron/32.0.1 Safari/537.36" version="24.7.17">
  <diagram name="Página-1" id="gNOtuRLb4UjlLO7ESeZD">
    <mxGraphModel dx="3653.8" dy="797" grid="1" gridSize="10" guides="1" tooltips="1" connect="1" arrows="1" fold="1" page="1" pageScale="1.2" pageWidth="827" pageHeight="1169" math="0" shadow="0">
      <root>
        <mxCell id="0" />
        <mxCell id="1" parent="0" />
        <mxCell id="BaElDOL2xbbSz7ybqqOQ-65" value="&lt;span style=&quot;font-size: 24px;&quot;&gt;&lt;b&gt;&lt;i&gt;estado&lt;/i&gt;&lt;/b&gt;&lt;/span&gt;" style="whiteSpace=wrap;html=1;align=center;" parent="1" vertex="1">
          <mxGeometry x="-380" y="1090" width="210" height="110" as="geometry" />
        </mxCell>
        <mxCell id="BaElDOL2xbbSz7ybqqOQ-68" value="&lt;span style=&quot;font-size: 16px;&quot;&gt;fecha&lt;/span&gt;" style="ellipse;whiteSpace=wrap;html=1;" parent="1" vertex="1">
          <mxGeometry x="-430" y="1020" width="90" height="40" as="geometry" />
        </mxCell>
        <mxCell id="BaElDOL2xbbSz7ybqqOQ-71" style="edgeStyle=orthogonalEdgeStyle;rounded=0;orthogonalLoop=1;jettySize=auto;html=1;exitX=0.5;exitY=1;exitDx=0;exitDy=0;endArrow=none;endFill=0;" parent="1" source="BaElDOL2xbbSz7ybqqOQ-72" target="BaElDOL2xbbSz7ybqqOQ-79" edge="1">
          <mxGeometry relative="1" as="geometry" />
        </mxCell>
        <mxCell id="BaElDOL2xbbSz7ybqqOQ-72" value="&lt;font style=&quot;font-size: 24px;&quot;&gt;&lt;b&gt;&lt;i&gt;modelo&lt;/i&gt;&lt;/b&gt;&lt;/font&gt;" style="whiteSpace=wrap;html=1;align=center;" parent="1" vertex="1">
          <mxGeometry x="731.4000000000001" y="1405" width="190" height="110" as="geometry" />
        </mxCell>
        <mxCell id="BaElDOL2xbbSz7ybqqOQ-73" style="edgeStyle=orthogonalEdgeStyle;rounded=0;orthogonalLoop=1;jettySize=auto;html=1;exitX=1;exitY=0.5;exitDx=0;exitDy=0;endArrow=none;endFill=0;" parent="1" source="BaElDOL2xbbSz7ybqqOQ-74" target="BaElDOL2xbbSz7ybqqOQ-77" edge="1">
          <mxGeometry relative="1" as="geometry" />
        </mxCell>
        <mxCell id="BaElDOL2xbbSz7ybqqOQ-74" value="&lt;font style=&quot;font-size: 24px;&quot;&gt;&lt;b&gt;&lt;i&gt;auto&lt;/i&gt;&lt;/b&gt;&lt;/font&gt;" style="whiteSpace=wrap;html=1;align=center;" parent="1" vertex="1">
          <mxGeometry x="296" y="1405" width="190" height="110" as="geometry" />
        </mxCell>
        <mxCell id="BaElDOL2xbbSz7ybqqOQ-75" value="&lt;span style=&quot;font-size: 24px;&quot;&gt;&lt;b&gt;&lt;i&gt;marca&lt;/i&gt;&lt;/b&gt;&lt;/span&gt;" style="whiteSpace=wrap;html=1;align=center;" parent="1" vertex="1">
          <mxGeometry x="731.4000000000001" y="1705" width="190" height="110" as="geometry" />
        </mxCell>
        <mxCell id="BaElDOL2xbbSz7ybqqOQ-76" style="edgeStyle=orthogonalEdgeStyle;rounded=0;orthogonalLoop=1;jettySize=auto;html=1;exitX=1;exitY=0.5;exitDx=0;exitDy=0;endArrow=none;endFill=0;" parent="1" source="BaElDOL2xbbSz7ybqqOQ-77" target="BaElDOL2xbbSz7ybqqOQ-72" edge="1">
          <mxGeometry relative="1" as="geometry" />
        </mxCell>
        <mxCell id="BaElDOL2xbbSz7ybqqOQ-77" value="&lt;span style=&quot;font-size: 16px;&quot;&gt;&lt;b&gt;tiene&lt;/b&gt;&lt;/span&gt;" style="rhombus;whiteSpace=wrap;html=1;" parent="1" vertex="1">
          <mxGeometry x="563.9" y="1420" width="89" height="80" as="geometry" />
        </mxCell>
        <mxCell id="BaElDOL2xbbSz7ybqqOQ-78" style="edgeStyle=orthogonalEdgeStyle;rounded=0;orthogonalLoop=1;jettySize=auto;html=1;exitX=0.5;exitY=1;exitDx=0;exitDy=0;endArrow=none;endFill=0;" parent="1" source="BaElDOL2xbbSz7ybqqOQ-79" target="BaElDOL2xbbSz7ybqqOQ-75" edge="1">
          <mxGeometry relative="1" as="geometry" />
        </mxCell>
        <mxCell id="BaElDOL2xbbSz7ybqqOQ-79" value="&lt;b&gt;&lt;font style=&quot;font-size: 16px;&quot;&gt;tiene&lt;/font&gt;&lt;/b&gt;" style="rhombus;whiteSpace=wrap;html=1;" parent="1" vertex="1">
          <mxGeometry x="781.9000000000001" y="1570" width="89" height="80" as="geometry" />
        </mxCell>
        <mxCell id="BaElDOL2xbbSz7ybqqOQ-80" value="patente" style="ellipse;whiteSpace=wrap;html=1;" parent="1" vertex="1">
          <mxGeometry x="168.6" y="1480" width="80" height="25" as="geometry" />
        </mxCell>
        <mxCell id="BaElDOL2xbbSz7ybqqOQ-81" value="nombre" style="ellipse;whiteSpace=wrap;html=1;" parent="1" vertex="1">
          <mxGeometry x="740" y="1330" width="88.6" height="40" as="geometry" />
        </mxCell>
        <mxCell id="BaElDOL2xbbSz7ybqqOQ-82" value="año" style="ellipse;whiteSpace=wrap;html=1;" parent="1" vertex="1">
          <mxGeometry x="856.4" y="1330" width="83.6" height="40" as="geometry" />
        </mxCell>
        <mxCell id="BaElDOL2xbbSz7ybqqOQ-83" value="tipo" style="ellipse;whiteSpace=wrap;html=1;" parent="1" vertex="1">
          <mxGeometry x="956.75" y="1390" width="53.25" height="40" as="geometry" />
        </mxCell>
        <mxCell id="BaElDOL2xbbSz7ybqqOQ-84" value="nombre" style="ellipse;whiteSpace=wrap;html=1;" parent="1" vertex="1">
          <mxGeometry x="966.4" y="1760" width="73.25" height="40" as="geometry" />
        </mxCell>
        <mxCell id="BaElDOL2xbbSz7ybqqOQ-86" style="edgeStyle=orthogonalEdgeStyle;rounded=0;orthogonalLoop=1;jettySize=auto;html=1;endArrow=none;endFill=0;" parent="1" source="BaElDOL2xbbSz7ybqqOQ-65" target="BaElDOL2xbbSz7ybqqOQ-88" edge="1">
          <mxGeometry relative="1" as="geometry">
            <mxPoint x="15" y="1150" as="sourcePoint" />
          </mxGeometry>
        </mxCell>
        <mxCell id="BaElDOL2xbbSz7ybqqOQ-141" value="(1:1)" style="edgeLabel;html=1;align=center;verticalAlign=middle;resizable=0;points=[];fontSize=18;fontStyle=1" parent="BaElDOL2xbbSz7ybqqOQ-86" vertex="1" connectable="0">
          <mxGeometry x="-0.8464" relative="1" as="geometry">
            <mxPoint x="19" as="offset" />
          </mxGeometry>
        </mxCell>
        <mxCell id="BaElDOL2xbbSz7ybqqOQ-87" style="edgeStyle=orthogonalEdgeStyle;rounded=0;orthogonalLoop=1;jettySize=auto;html=1;exitX=1;exitY=0.5;exitDx=0;exitDy=0;endArrow=none;endFill=0;entryX=0;entryY=0.5;entryDx=0;entryDy=0;" parent="1" source="BaElDOL2xbbSz7ybqqOQ-88" target="BaElDOL2xbbSz7ybqqOQ-89" edge="1">
          <mxGeometry relative="1" as="geometry">
            <mxPoint x="260" y="1150" as="targetPoint" />
          </mxGeometry>
        </mxCell>
        <mxCell id="BaElDOL2xbbSz7ybqqOQ-90" value="(1:2)" style="edgeLabel;html=1;align=center;verticalAlign=middle;resizable=0;points=[];fontStyle=1;fontSize=18;" parent="BaElDOL2xbbSz7ybqqOQ-87" vertex="1" connectable="0">
          <mxGeometry x="0.5335" y="2" relative="1" as="geometry">
            <mxPoint as="offset" />
          </mxGeometry>
        </mxCell>
        <mxCell id="BaElDOL2xbbSz7ybqqOQ-88" value="&lt;b&gt;&lt;font style=&quot;font-size: 16px;&quot;&gt;tiene&lt;/font&gt;&lt;/b&gt;" style="rhombus;whiteSpace=wrap;html=1;" parent="1" vertex="1">
          <mxGeometry x="10.59999999999998" y="1105" width="89" height="80" as="geometry" />
        </mxCell>
        <mxCell id="BaElDOL2xbbSz7ybqqOQ-89" value="&lt;font style=&quot;font-size: 24px;&quot;&gt;&lt;b&gt;&lt;i&gt;registro&lt;/i&gt;&lt;/b&gt;&lt;/font&gt;" style="whiteSpace=wrap;html=1;align=center;" parent="1" vertex="1">
          <mxGeometry x="295.5" y="1090" width="190" height="110" as="geometry" />
        </mxCell>
        <mxCell id="BaElDOL2xbbSz7ybqqOQ-91" value="&lt;span style=&quot;font-size: 16px;&quot;&gt;hora&lt;/span&gt;" style="ellipse;whiteSpace=wrap;html=1;" parent="1" vertex="1">
          <mxGeometry x="-325" y="1015" width="90" height="40" as="geometry" />
        </mxCell>
        <mxCell id="BaElDOL2xbbSz7ybqqOQ-107" style="edgeStyle=orthogonalEdgeStyle;rounded=0;orthogonalLoop=1;jettySize=auto;html=1;entryX=0.5;entryY=1;entryDx=0;entryDy=0;endArrow=none;endFill=0;" parent="1" source="BaElDOL2xbbSz7ybqqOQ-89" target="BaElDOL2xbbSz7ybqqOQ-111" edge="1">
          <mxGeometry relative="1" as="geometry">
            <mxPoint x="390.5" y="1080" as="sourcePoint" />
          </mxGeometry>
        </mxCell>
        <mxCell id="BaElDOL2xbbSz7ybqqOQ-108" value="&lt;font&gt;(1:1)&lt;/font&gt;" style="edgeLabel;html=1;align=center;verticalAlign=middle;resizable=0;points=[];fontStyle=1;fontSize=18;" parent="BaElDOL2xbbSz7ybqqOQ-107" vertex="1" connectable="0">
          <mxGeometry x="-0.7395" relative="1" as="geometry">
            <mxPoint y="-15" as="offset" />
          </mxGeometry>
        </mxCell>
        <mxCell id="BaElDOL2xbbSz7ybqqOQ-109" style="edgeStyle=orthogonalEdgeStyle;rounded=0;orthogonalLoop=1;jettySize=auto;html=1;exitX=0.5;exitY=0;exitDx=0;exitDy=0;entryX=0.5;entryY=1;entryDx=0;entryDy=0;endArrow=none;endFill=0;" parent="1" source="BaElDOL2xbbSz7ybqqOQ-111" target="BaElDOL2xbbSz7ybqqOQ-112" edge="1">
          <mxGeometry relative="1" as="geometry" />
        </mxCell>
        <mxCell id="BaElDOL2xbbSz7ybqqOQ-110" value="&lt;font&gt;(1:n)&lt;/font&gt;" style="edgeLabel;html=1;align=center;verticalAlign=middle;resizable=0;points=[];fontSize=18;fontStyle=1" parent="BaElDOL2xbbSz7ybqqOQ-109" vertex="1" connectable="0">
          <mxGeometry x="0.7414" y="-2" relative="1" as="geometry">
            <mxPoint x="-2" y="25" as="offset" />
          </mxGeometry>
        </mxCell>
        <mxCell id="BaElDOL2xbbSz7ybqqOQ-111" value="&lt;b&gt;&lt;font style=&quot;font-size: 16px;&quot;&gt;realiza&lt;/font&gt;&lt;/b&gt;" style="rhombus;whiteSpace=wrap;html=1;" parent="1" vertex="1">
          <mxGeometry x="346" y="935" width="89" height="80" as="geometry" />
        </mxCell>
        <mxCell id="BaElDOL2xbbSz7ybqqOQ-112" value="&lt;font style=&quot;font-size: 24px;&quot;&gt;&lt;b&gt;&lt;i&gt;mecanico&lt;/i&gt;&lt;/b&gt;&lt;/font&gt;" style="whiteSpace=wrap;html=1;align=center;" parent="1" vertex="1">
          <mxGeometry x="295.5" y="745" width="190" height="110" as="geometry" />
        </mxCell>
        <mxCell id="BaElDOL2xbbSz7ybqqOQ-113" style="edgeStyle=orthogonalEdgeStyle;rounded=0;orthogonalLoop=1;jettySize=auto;html=1;endArrow=circle;endFill=0;endSize=6;startSize=6;" parent="1" source="BaElDOL2xbbSz7ybqqOQ-112" target="BaElDOL2xbbSz7ybqqOQ-114" edge="1">
          <mxGeometry relative="1" as="geometry">
            <mxPoint x="529.5" y="795" as="sourcePoint" />
            <mxPoint x="629.5" y="735" as="targetPoint" />
            <Array as="points">
              <mxPoint x="519.5" y="755" />
              <mxPoint x="519.5" y="735" />
            </Array>
          </mxGeometry>
        </mxCell>
        <mxCell id="BaElDOL2xbbSz7ybqqOQ-114" value="primer nombre" style="ellipse;whiteSpace=wrap;html=1;" parent="1" vertex="1">
          <mxGeometry x="549.5" y="715" width="100" height="40" as="geometry" />
        </mxCell>
        <mxCell id="BaElDOL2xbbSz7ybqqOQ-115" style="edgeStyle=orthogonalEdgeStyle;rounded=0;orthogonalLoop=1;jettySize=auto;html=1;endArrow=circle;endFill=0;endSize=6;startSize=6;" parent="1" source="BaElDOL2xbbSz7ybqqOQ-112" target="BaElDOL2xbbSz7ybqqOQ-116" edge="1">
          <mxGeometry relative="1" as="geometry">
            <mxPoint x="485.5" y="785" as="sourcePoint" />
            <mxPoint x="549.5" y="765" as="targetPoint" />
            <Array as="points" />
          </mxGeometry>
        </mxCell>
        <mxCell id="BaElDOL2xbbSz7ybqqOQ-116" value="apellido" style="ellipse;whiteSpace=wrap;html=1;" parent="1" vertex="1">
          <mxGeometry x="549.5" y="775" width="80.5" height="40" as="geometry" />
        </mxCell>
        <mxCell id="BaElDOL2xbbSz7ybqqOQ-117" style="edgeStyle=orthogonalEdgeStyle;rounded=0;orthogonalLoop=1;jettySize=auto;html=1;endArrow=circle;endFill=0;endSize=6;startSize=6;" parent="1" source="BaElDOL2xbbSz7ybqqOQ-112" target="BaElDOL2xbbSz7ybqqOQ-118" edge="1">
          <mxGeometry relative="1" as="geometry">
            <mxPoint x="519.5" y="840" as="sourcePoint" />
            <mxPoint x="583.5" y="835" as="targetPoint" />
            <Array as="points">
              <mxPoint x="529.5" y="845" />
              <mxPoint x="529.5" y="845" />
            </Array>
          </mxGeometry>
        </mxCell>
        <mxCell id="BaElDOL2xbbSz7ybqqOQ-118" value="matricula" style="ellipse;whiteSpace=wrap;html=1;" parent="1" vertex="1">
          <mxGeometry x="549.5" y="825" width="90.5" height="40" as="geometry" />
        </mxCell>
        <mxCell id="BaElDOL2xbbSz7ybqqOQ-119" value="&lt;b&gt;&lt;u&gt;id&lt;/u&gt;&lt;/b&gt;" style="ellipse;whiteSpace=wrap;html=1;" parent="1" vertex="1">
          <mxGeometry x="529.5" y="655" width="40.5" height="40" as="geometry" />
        </mxCell>
        <mxCell id="BaElDOL2xbbSz7ybqqOQ-120" style="edgeStyle=orthogonalEdgeStyle;rounded=0;orthogonalLoop=1;jettySize=auto;html=1;endArrow=oval;endFill=1;endSize=6;startSize=6;labelBackgroundColor=#000000;labelBorderColor=none;strokeColor=light-dark(#000000, #281d00);anchorPointDirection=0;startFillColor=#000000;endFillColor=#000000;snapToPoint=0;fixDash=0;strokeOpacity=100;fillOpacity=100;" parent="1" source="BaElDOL2xbbSz7ybqqOQ-112" target="BaElDOL2xbbSz7ybqqOQ-119" edge="1">
          <mxGeometry relative="1" as="geometry">
            <mxPoint x="459.5" y="675" as="sourcePoint" />
            <mxPoint x="523.5" y="655" as="targetPoint" />
            <Array as="points">
              <mxPoint x="431.5" y="675" />
            </Array>
          </mxGeometry>
        </mxCell>
        <mxCell id="BaElDOL2xbbSz7ybqqOQ-121" value="&lt;b&gt;&lt;u&gt;id&lt;/u&gt;&lt;/b&gt;" style="ellipse;whiteSpace=wrap;html=1;" parent="1" vertex="1">
          <mxGeometry x="486" y="1040" width="50.5" height="30" as="geometry" />
        </mxCell>
        <mxCell id="BaElDOL2xbbSz7ybqqOQ-122" value="&lt;font style=&quot;font-size: 24px;&quot;&gt;&lt;b&gt;&lt;i&gt;info cliente&lt;/i&gt;&lt;/b&gt;&lt;/font&gt;" style="whiteSpace=wrap;html=1;align=center;" parent="1" vertex="1">
          <mxGeometry x="810" y="1092.5" width="190" height="110" as="geometry" />
        </mxCell>
        <mxCell id="BaElDOL2xbbSz7ybqqOQ-123" value="primer nombre" style="ellipse;whiteSpace=wrap;html=1;" parent="1" vertex="1">
          <mxGeometry x="1055" y="1062.5" width="100" height="40" as="geometry" />
        </mxCell>
        <mxCell id="BaElDOL2xbbSz7ybqqOQ-124" value="apellido" style="ellipse;whiteSpace=wrap;html=1;" parent="1" vertex="1">
          <mxGeometry x="1055" y="1112.5" width="100" height="40" as="geometry" />
        </mxCell>
        <mxCell id="BaElDOL2xbbSz7ybqqOQ-125" value="direccion email" style="ellipse;whiteSpace=wrap;html=1;" parent="1" vertex="1">
          <mxGeometry x="1055" y="1162.5" width="100" height="40" as="geometry" />
        </mxCell>
        <mxCell id="BaElDOL2xbbSz7ybqqOQ-126" value="direccion" style="ellipse;whiteSpace=wrap;html=1;" parent="1" vertex="1">
          <mxGeometry x="988.6" y="1237.5" width="100" height="40" as="geometry" />
        </mxCell>
        <mxCell id="BaElDOL2xbbSz7ybqqOQ-127" value="numero de celular" style="ellipse;whiteSpace=wrap;html=1;" parent="1" vertex="1">
          <mxGeometry x="860.0000000000001" y="1242.5" width="110" height="40" as="geometry" />
        </mxCell>
        <mxCell id="BaElDOL2xbbSz7ybqqOQ-128" value="&lt;b&gt;&lt;u&gt;id&lt;/u&gt;&lt;/b&gt;" style="ellipse;whiteSpace=wrap;html=1;" parent="1" vertex="1">
          <mxGeometry x="930" y="1007.5" width="58.6" height="40" as="geometry" />
        </mxCell>
        <mxCell id="BaElDOL2xbbSz7ybqqOQ-129" value="&lt;b&gt;&lt;u&gt;id&lt;/u&gt;&lt;/b&gt;" style="ellipse;whiteSpace=wrap;html=1;" parent="1" vertex="1">
          <mxGeometry x="1795" y="2555" width="100" height="40" as="geometry" />
        </mxCell>
        <mxCell id="BaElDOL2xbbSz7ybqqOQ-130" value="&lt;font style=&quot;font-size: 24px;&quot;&gt;&lt;b&gt;&lt;i&gt;Herramienta&lt;/i&gt;&lt;/b&gt;&lt;/font&gt;" style="whiteSpace=wrap;html=1;align=center;" parent="1" vertex="1">
          <mxGeometry x="-1080" y="1270" width="190" height="110" as="geometry" />
        </mxCell>
        <mxCell id="BaElDOL2xbbSz7ybqqOQ-131" value="nombre" style="ellipse;whiteSpace=wrap;html=1;" parent="1" vertex="1">
          <mxGeometry x="-1010" y="1195" width="70" height="40" as="geometry" />
        </mxCell>
        <mxCell id="BaElDOL2xbbSz7ybqqOQ-132" value="&lt;span style=&quot;font-size: 24px;&quot;&gt;&lt;b&gt;&lt;i&gt;Condicion mecanica&lt;/i&gt;&lt;/b&gt;&lt;/span&gt;" style="whiteSpace=wrap;html=1;align=center;" parent="1" vertex="1">
          <mxGeometry x="-640" y="1540" width="190" height="110" as="geometry" />
        </mxCell>
        <mxCell id="BaElDOL2xbbSz7ybqqOQ-133" value="nombre" style="ellipse;whiteSpace=wrap;html=1;" parent="1" vertex="1">
          <mxGeometry x="-405" y="1575" width="80" height="30" as="geometry" />
        </mxCell>
        <mxCell id="BaElDOL2xbbSz7ybqqOQ-134" value="estado" style="ellipse;whiteSpace=wrap;html=1;" parent="1" vertex="1">
          <mxGeometry x="-395" y="1620" width="70" height="40" as="geometry" />
        </mxCell>
        <mxCell id="BaElDOL2xbbSz7ybqqOQ-135" value="&lt;span style=&quot;font-size: 24px;&quot;&gt;&lt;b&gt;&lt;i&gt;Exterior&lt;/i&gt;&lt;/b&gt;&lt;/span&gt;" style="whiteSpace=wrap;html=1;align=center;" parent="1" vertex="1">
          <mxGeometry x="-860" y="1735" width="190" height="110" as="geometry" />
        </mxCell>
        <mxCell id="BaElDOL2xbbSz7ybqqOQ-136" value="&lt;span style=&quot;font-size: 24px;&quot;&gt;&lt;b&gt;&lt;i&gt;Sistema electrico&lt;/i&gt;&lt;/b&gt;&lt;/span&gt;" style="whiteSpace=wrap;html=1;align=center;" parent="1" vertex="1">
          <mxGeometry x="-610" y="1740" width="190" height="110" as="geometry" />
        </mxCell>
        <mxCell id="BaElDOL2xbbSz7ybqqOQ-145" style="edgeStyle=orthogonalEdgeStyle;rounded=0;orthogonalLoop=1;jettySize=auto;html=1;exitX=0.5;exitY=0;exitDx=0;exitDy=0;" parent="1" source="BaElDOL2xbbSz7ybqqOQ-137" target="BaElDOL2xbbSz7ybqqOQ-132" edge="1">
          <mxGeometry relative="1" as="geometry">
            <Array as="points">
              <mxPoint x="-245" y="1705" />
              <mxPoint x="-540" y="1705" />
            </Array>
          </mxGeometry>
        </mxCell>
        <mxCell id="BaElDOL2xbbSz7ybqqOQ-137" value="&lt;span style=&quot;font-size: 24px;&quot;&gt;&lt;b&gt;&lt;i&gt;Interior&lt;/i&gt;&lt;/b&gt;&lt;/span&gt;" style="whiteSpace=wrap;html=1;align=center;" parent="1" vertex="1">
          <mxGeometry x="-340" y="1740" width="190" height="110" as="geometry" />
        </mxCell>
        <mxCell id="BaElDOL2xbbSz7ybqqOQ-138" value="motivo" style="ellipse;whiteSpace=wrap;html=1;" parent="1" vertex="1">
          <mxGeometry x="530" y="1185" width="70" height="40" as="geometry" />
        </mxCell>
        <mxCell id="BaElDOL2xbbSz7ybqqOQ-139" value="observaciones" style="ellipse;whiteSpace=wrap;html=1;" parent="1" vertex="1">
          <mxGeometry x="429.5" y="1230" width="100" height="40" as="geometry" />
        </mxCell>
        <mxCell id="BaElDOL2xbbSz7ybqqOQ-142" style="edgeStyle=orthogonalEdgeStyle;rounded=0;orthogonalLoop=1;jettySize=auto;html=1;exitX=0.5;exitY=0;exitDx=0;exitDy=0;" parent="1" source="BaElDOL2xbbSz7ybqqOQ-135" target="BaElDOL2xbbSz7ybqqOQ-132" edge="1">
          <mxGeometry relative="1" as="geometry">
            <Array as="points">
              <mxPoint x="-765" y="1705" />
              <mxPoint x="-540" y="1705" />
            </Array>
          </mxGeometry>
        </mxCell>
        <mxCell id="BaElDOL2xbbSz7ybqqOQ-143" style="edgeStyle=orthogonalEdgeStyle;rounded=0;orthogonalLoop=1;jettySize=auto;html=1;" parent="1" source="BaElDOL2xbbSz7ybqqOQ-136" target="BaElDOL2xbbSz7ybqqOQ-132" edge="1">
          <mxGeometry relative="1" as="geometry">
            <Array as="points">
              <mxPoint x="-539" y="1715" />
              <mxPoint x="-539" y="1715" />
            </Array>
          </mxGeometry>
        </mxCell>
        <mxCell id="BaElDOL2xbbSz7ybqqOQ-146" value="&lt;font style=&quot;font-size: 18px;&quot;&gt;&lt;b&gt;(t,e)&lt;/b&gt;&lt;/font&gt;" style="edgeLabel;html=1;align=center;verticalAlign=middle;resizable=0;points=[];" parent="BaElDOL2xbbSz7ybqqOQ-143" vertex="1" connectable="0">
          <mxGeometry x="0.3186" y="-2" relative="1" as="geometry">
            <mxPoint x="-3" y="4" as="offset" />
          </mxGeometry>
        </mxCell>
        <mxCell id="BaElDOL2xbbSz7ybqqOQ-147" style="edgeStyle=orthogonalEdgeStyle;rounded=0;orthogonalLoop=1;jettySize=auto;html=1;endArrow=circle;endFill=0;endSize=6;startSize=6;" parent="1" source="BaElDOL2xbbSz7ybqqOQ-132" target="BaElDOL2xbbSz7ybqqOQ-133" edge="1">
          <mxGeometry relative="1" as="geometry">
            <mxPoint x="-450" y="1580" as="sourcePoint" />
            <mxPoint x="-386" y="1580" as="targetPoint" />
            <Array as="points">
              <mxPoint x="-440" y="1595" />
              <mxPoint x="-440" y="1590" />
            </Array>
          </mxGeometry>
        </mxCell>
        <mxCell id="BaElDOL2xbbSz7ybqqOQ-148" style="edgeStyle=orthogonalEdgeStyle;rounded=0;orthogonalLoop=1;jettySize=auto;html=1;endArrow=circle;endFill=0;endSize=6;startSize=6;" parent="1" source="BaElDOL2xbbSz7ybqqOQ-132" target="BaElDOL2xbbSz7ybqqOQ-134" edge="1">
          <mxGeometry relative="1" as="geometry">
            <mxPoint x="-430" y="1615" as="sourcePoint" />
            <mxPoint x="-380" y="1595" as="targetPoint" />
            <Array as="points">
              <mxPoint x="-440" y="1640" />
              <mxPoint x="-440" y="1640" />
            </Array>
          </mxGeometry>
        </mxCell>
        <mxCell id="BaElDOL2xbbSz7ybqqOQ-151" style="edgeStyle=orthogonalEdgeStyle;rounded=0;orthogonalLoop=1;jettySize=auto;html=1;entryX=0.5;entryY=1;entryDx=0;entryDy=0;endArrow=none;endFill=0;" parent="1" source="BaElDOL2xbbSz7ybqqOQ-74" target="BaElDOL2xbbSz7ybqqOQ-155" edge="1">
          <mxGeometry relative="1" as="geometry">
            <mxPoint x="391.5" y="1435" as="sourcePoint" />
          </mxGeometry>
        </mxCell>
        <mxCell id="BaElDOL2xbbSz7ybqqOQ-152" value="&lt;font&gt;(1:n)&lt;/font&gt;" style="edgeLabel;html=1;align=center;verticalAlign=middle;resizable=0;points=[];fontSize=18;fontStyle=1" parent="BaElDOL2xbbSz7ybqqOQ-151" vertex="1" connectable="0">
          <mxGeometry x="-0.7395" relative="1" as="geometry">
            <mxPoint y="-17" as="offset" />
          </mxGeometry>
        </mxCell>
        <mxCell id="BaElDOL2xbbSz7ybqqOQ-153" style="edgeStyle=orthogonalEdgeStyle;rounded=0;orthogonalLoop=1;jettySize=auto;html=1;exitX=0.5;exitY=0;exitDx=0;exitDy=0;endArrow=none;endFill=0;" parent="1" source="BaElDOL2xbbSz7ybqqOQ-155" target="BaElDOL2xbbSz7ybqqOQ-89" edge="1">
          <mxGeometry relative="1" as="geometry">
            <mxPoint x="391.5" y="1200" as="targetPoint" />
          </mxGeometry>
        </mxCell>
        <mxCell id="BaElDOL2xbbSz7ybqqOQ-154" value="&lt;font&gt;(1:1)&lt;/font&gt;" style="edgeLabel;html=1;align=center;verticalAlign=middle;resizable=0;points=[];fontSize=18;fontStyle=1" parent="BaElDOL2xbbSz7ybqqOQ-153" vertex="1" connectable="0">
          <mxGeometry x="0.7414" y="-2" relative="1" as="geometry">
            <mxPoint x="-2" y="10" as="offset" />
          </mxGeometry>
        </mxCell>
        <mxCell id="BaElDOL2xbbSz7ybqqOQ-155" value="&lt;b&gt;&lt;font style=&quot;font-size: 16px;&quot;&gt;tiene&lt;/font&gt;&lt;/b&gt;" style="rhombus;whiteSpace=wrap;html=1;" parent="1" vertex="1">
          <mxGeometry x="346" y="1260" width="89" height="80" as="geometry" />
        </mxCell>
        <mxCell id="BaElDOL2xbbSz7ybqqOQ-158" style="edgeStyle=orthogonalEdgeStyle;rounded=0;orthogonalLoop=1;jettySize=auto;html=1;exitX=0.5;exitY=0;exitDx=0;exitDy=0;entryX=0.5;entryY=1;entryDx=0;entryDy=0;" parent="1" source="BaElDOL2xbbSz7ybqqOQ-156" target="BaElDOL2xbbSz7ybqqOQ-65" edge="1">
          <mxGeometry relative="1" as="geometry">
            <Array as="points">
              <mxPoint x="-545" y="1250" />
              <mxPoint x="-275" y="1250" />
            </Array>
          </mxGeometry>
        </mxCell>
        <mxCell id="BaElDOL2xbbSz7ybqqOQ-156" value="&lt;span style=&quot;font-size: 24px;&quot;&gt;&lt;b&gt;&lt;i&gt;Entrada&lt;/i&gt;&lt;/b&gt;&lt;/span&gt;" style="whiteSpace=wrap;html=1;align=center;" parent="1" vertex="1">
          <mxGeometry x="-640" y="1270" width="190" height="110" as="geometry" />
        </mxCell>
        <mxCell id="BaElDOL2xbbSz7ybqqOQ-159" style="edgeStyle=orthogonalEdgeStyle;rounded=0;orthogonalLoop=1;jettySize=auto;html=1;exitX=0.5;exitY=0;exitDx=0;exitDy=0;entryX=0.5;entryY=1;entryDx=0;entryDy=0;" parent="1" source="BaElDOL2xbbSz7ybqqOQ-157" target="BaElDOL2xbbSz7ybqqOQ-65" edge="1">
          <mxGeometry relative="1" as="geometry">
            <Array as="points">
              <mxPoint x="-25" y="1250" />
              <mxPoint x="-275" y="1250" />
            </Array>
          </mxGeometry>
        </mxCell>
        <mxCell id="BaElDOL2xbbSz7ybqqOQ-160" value="&lt;font style=&quot;font-size: 18px;&quot;&gt;&lt;b&gt;(t,e)&lt;/b&gt;&lt;/font&gt;" style="edgeLabel;html=1;align=center;verticalAlign=middle;resizable=0;points=[];" parent="BaElDOL2xbbSz7ybqqOQ-159" vertex="1" connectable="0">
          <mxGeometry x="0.8536" y="-1" relative="1" as="geometry">
            <mxPoint as="offset" />
          </mxGeometry>
        </mxCell>
        <mxCell id="BaElDOL2xbbSz7ybqqOQ-157" value="&lt;span style=&quot;font-size: 24px;&quot;&gt;&lt;b&gt;&lt;i&gt;Salida&lt;/i&gt;&lt;/b&gt;&lt;/span&gt;" style="whiteSpace=wrap;html=1;align=center;" parent="1" vertex="1">
          <mxGeometry x="-120" y="1270" width="190" height="110" as="geometry" />
        </mxCell>
        <mxCell id="BaElDOL2xbbSz7ybqqOQ-161" value="&lt;span style=&quot;font-size: 16px;&quot;&gt;diagnostico&lt;/span&gt;" style="ellipse;whiteSpace=wrap;html=1;" parent="1" vertex="1">
          <mxGeometry x="110" y="1285" width="120" height="40" as="geometry" />
        </mxCell>
        <mxCell id="BaElDOL2xbbSz7ybqqOQ-163" value="&lt;span style=&quot;font-size: 16px;&quot;&gt;calificacion&lt;/span&gt;" style="ellipse;whiteSpace=wrap;html=1;" parent="1" vertex="1">
          <mxGeometry x="110" y="1330" width="120" height="40" as="geometry" />
        </mxCell>
        <mxCell id="BaElDOL2xbbSz7ybqqOQ-171" style="edgeStyle=orthogonalEdgeStyle;rounded=0;orthogonalLoop=1;jettySize=auto;html=1;endArrow=none;endFill=0;" parent="1" source="BaElDOL2xbbSz7ybqqOQ-130" target="BaElDOL2xbbSz7ybqqOQ-175" edge="1">
          <mxGeometry relative="1" as="geometry">
            <mxPoint x="-890" y="1314.989473684211" as="sourcePoint" />
          </mxGeometry>
        </mxCell>
        <mxCell id="BaElDOL2xbbSz7ybqqOQ-172" value="(1:n)" style="edgeLabel;html=1;align=center;verticalAlign=middle;resizable=0;points=[];fontSize=18;fontStyle=1" parent="BaElDOL2xbbSz7ybqqOQ-171" vertex="1" connectable="0">
          <mxGeometry x="-0.8464" relative="1" as="geometry">
            <mxPoint x="24" as="offset" />
          </mxGeometry>
        </mxCell>
        <mxCell id="BaElDOL2xbbSz7ybqqOQ-173" style="edgeStyle=orthogonalEdgeStyle;rounded=0;orthogonalLoop=1;jettySize=auto;html=1;exitX=1;exitY=0.5;exitDx=0;exitDy=0;endArrow=none;endFill=0;" parent="1" source="BaElDOL2xbbSz7ybqqOQ-175" target="BaElDOL2xbbSz7ybqqOQ-156" edge="1">
          <mxGeometry relative="1" as="geometry">
            <mxPoint x="-640" y="1314.989473684211" as="targetPoint" />
          </mxGeometry>
        </mxCell>
        <mxCell id="BaElDOL2xbbSz7ybqqOQ-174" value="(0:n)" style="edgeLabel;html=1;align=center;verticalAlign=middle;resizable=0;points=[];fontStyle=1;fontSize=18;" parent="BaElDOL2xbbSz7ybqqOQ-173" vertex="1" connectable="0">
          <mxGeometry x="0.5335" y="2" relative="1" as="geometry">
            <mxPoint x="-15" y="2" as="offset" />
          </mxGeometry>
        </mxCell>
        <mxCell id="BaElDOL2xbbSz7ybqqOQ-175" value="&lt;b&gt;&lt;font style=&quot;font-size: 16px;&quot;&gt;tiene&lt;/font&gt;&lt;/b&gt;" style="rhombus;whiteSpace=wrap;html=1;" parent="1" vertex="1">
          <mxGeometry x="-810" y="1285" width="89" height="80" as="geometry" />
        </mxCell>
        <mxCell id="BaElDOL2xbbSz7ybqqOQ-176" value="&lt;span style=&quot;font-size: 16px;&quot;&gt;combustible&lt;/span&gt;" style="ellipse;whiteSpace=wrap;html=1;" parent="1" vertex="1">
          <mxGeometry x="-410" y="1325" width="110" height="40" as="geometry" />
        </mxCell>
        <mxCell id="BaElDOL2xbbSz7ybqqOQ-178" style="edgeStyle=orthogonalEdgeStyle;rounded=0;orthogonalLoop=1;jettySize=auto;html=1;entryX=0.5;entryY=1;entryDx=0;entryDy=0;endArrow=none;endFill=0;" parent="1" source="BaElDOL2xbbSz7ybqqOQ-132" target="BaElDOL2xbbSz7ybqqOQ-182" edge="1">
          <mxGeometry relative="1" as="geometry">
            <mxPoint x="-544.9818181818182" y="1525.0000000000002" as="sourcePoint" />
          </mxGeometry>
        </mxCell>
        <mxCell id="BaElDOL2xbbSz7ybqqOQ-179" value="&lt;font&gt;(1:n)&lt;/font&gt;" style="edgeLabel;html=1;align=center;verticalAlign=middle;resizable=0;points=[];fontSize=18;fontStyle=1" parent="BaElDOL2xbbSz7ybqqOQ-178" vertex="1" connectable="0">
          <mxGeometry x="-0.7395" relative="1" as="geometry">
            <mxPoint y="-8" as="offset" />
          </mxGeometry>
        </mxCell>
        <mxCell id="BaElDOL2xbbSz7ybqqOQ-180" style="edgeStyle=orthogonalEdgeStyle;rounded=0;orthogonalLoop=1;jettySize=auto;html=1;exitX=0.5;exitY=0;exitDx=0;exitDy=0;endArrow=none;endFill=0;" parent="1" edge="1">
          <mxGeometry relative="1" as="geometry">
            <mxPoint x="-545.3" y="1380.0000000000002" as="targetPoint" />
            <mxPoint x="-545.3" y="1440.0000000000002" as="sourcePoint" />
          </mxGeometry>
        </mxCell>
        <mxCell id="BaElDOL2xbbSz7ybqqOQ-181" value="&lt;font&gt;(1:n)&lt;/font&gt;" style="edgeLabel;html=1;align=center;verticalAlign=middle;resizable=0;points=[];fontSize=18;fontStyle=1" parent="BaElDOL2xbbSz7ybqqOQ-180" vertex="1" connectable="0">
          <mxGeometry x="0.7414" y="-2" relative="1" as="geometry">
            <mxPoint x="-2" y="10" as="offset" />
          </mxGeometry>
        </mxCell>
        <mxCell id="BaElDOL2xbbSz7ybqqOQ-182" value="&lt;span style=&quot;font-size: 16px;&quot;&gt;&lt;b&gt;considera&lt;/b&gt;&lt;/span&gt;" style="rhombus;whiteSpace=wrap;html=1;" parent="1" vertex="1">
          <mxGeometry x="-595.8" y="1425" width="99.5" height="65" as="geometry" />
        </mxCell>
        <mxCell id="BaElDOL2xbbSz7ybqqOQ-186" value="&lt;b&gt;&lt;u&gt;&lt;i&gt;id&lt;/i&gt;&lt;/u&gt;&lt;/b&gt;" style="ellipse;whiteSpace=wrap;html=1;" parent="1" vertex="1">
          <mxGeometry x="-420" y="1526.2" width="50" height="30" as="geometry" />
        </mxCell>
        <mxCell id="BaElDOL2xbbSz7ybqqOQ-187" style="edgeStyle=orthogonalEdgeStyle;rounded=0;orthogonalLoop=1;jettySize=auto;html=1;endArrow=oval;endFill=1;endSize=6;startSize=6;" parent="1" source="BaElDOL2xbbSz7ybqqOQ-132" target="BaElDOL2xbbSz7ybqqOQ-186" edge="1">
          <mxGeometry relative="1" as="geometry">
            <mxPoint x="-405" y="1540" as="sourcePoint" />
            <mxPoint x="-341" y="1525" as="targetPoint" />
            <Array as="points">
              <mxPoint x="-430" y="1550" />
              <mxPoint x="-430" y="1541" />
            </Array>
          </mxGeometry>
        </mxCell>
        <mxCell id="BaElDOL2xbbSz7ybqqOQ-188" value="&lt;span style=&quot;font-size: 16px;&quot;&gt;kilometraje&lt;/span&gt;" style="ellipse;whiteSpace=wrap;html=1;" parent="1" vertex="1">
          <mxGeometry x="-220" y="1015" width="110" height="40" as="geometry" />
        </mxCell>
        <mxCell id="BaElDOL2xbbSz7ybqqOQ-190" style="edgeStyle=orthogonalEdgeStyle;rounded=0;orthogonalLoop=1;jettySize=auto;html=1;endArrow=circle;endFill=0;endSize=6;startSize=6;" parent="1" source="BaElDOL2xbbSz7ybqqOQ-156" target="BaElDOL2xbbSz7ybqqOQ-176" edge="1">
          <mxGeometry relative="1" as="geometry">
            <mxPoint x="-440" y="1352" as="sourcePoint" />
            <mxPoint x="-405" y="1330" as="targetPoint" />
            <Array as="points">
              <mxPoint x="-440" y="1345" />
              <mxPoint x="-440" y="1345" />
            </Array>
          </mxGeometry>
        </mxCell>
        <mxCell id="BaElDOL2xbbSz7ybqqOQ-191" value="&lt;b&gt;&lt;u&gt;&lt;i&gt;id&lt;/i&gt;&lt;/u&gt;&lt;/b&gt;" style="ellipse;whiteSpace=wrap;html=1;" parent="1" vertex="1">
          <mxGeometry x="-470" y="1080" width="50" height="30" as="geometry" />
        </mxCell>
        <mxCell id="BaElDOL2xbbSz7ybqqOQ-192" style="edgeStyle=orthogonalEdgeStyle;rounded=0;orthogonalLoop=1;jettySize=auto;html=1;endArrow=oval;endFill=1;endSize=6;startSize=6;" parent="1" source="BaElDOL2xbbSz7ybqqOQ-65" target="BaElDOL2xbbSz7ybqqOQ-191" edge="1">
          <mxGeometry relative="1" as="geometry">
            <mxPoint x="-510" y="1068.8" as="sourcePoint" />
            <mxPoint x="-401" y="1043.8" as="targetPoint" />
            <Array as="points">
              <mxPoint x="-390" y="1100" />
              <mxPoint x="-390" y="1100" />
            </Array>
          </mxGeometry>
        </mxCell>
        <mxCell id="BaElDOL2xbbSz7ybqqOQ-193" style="edgeStyle=orthogonalEdgeStyle;rounded=0;orthogonalLoop=1;jettySize=auto;html=1;endArrow=circle;endFill=0;endSize=6;startSize=6;" parent="1" source="BaElDOL2xbbSz7ybqqOQ-65" target="BaElDOL2xbbSz7ybqqOQ-68" edge="1">
          <mxGeometry relative="1" as="geometry">
            <mxPoint x="-330" y="1087" as="sourcePoint" />
            <mxPoint x="-295" y="1065" as="targetPoint" />
            <Array as="points">
              <mxPoint x="-340" y="1080" />
              <mxPoint x="-365" y="1080" />
            </Array>
          </mxGeometry>
        </mxCell>
        <mxCell id="BaElDOL2xbbSz7ybqqOQ-194" style="edgeStyle=orthogonalEdgeStyle;rounded=0;orthogonalLoop=1;jettySize=auto;html=1;endArrow=circle;endFill=0;endSize=6;startSize=6;" parent="1" target="BaElDOL2xbbSz7ybqqOQ-91" edge="1">
          <mxGeometry relative="1" as="geometry">
            <mxPoint x="-285" y="1090" as="sourcePoint" />
            <mxPoint x="-310" y="1058" as="targetPoint" />
            <Array as="points">
              <mxPoint x="-285" y="1080" />
              <mxPoint x="-290" y="1080" />
            </Array>
          </mxGeometry>
        </mxCell>
        <mxCell id="BaElDOL2xbbSz7ybqqOQ-195" style="edgeStyle=orthogonalEdgeStyle;rounded=0;orthogonalLoop=1;jettySize=auto;html=1;endArrow=circle;endFill=0;endSize=6;startSize=6;" parent="1" source="BaElDOL2xbbSz7ybqqOQ-65" target="BaElDOL2xbbSz7ybqqOQ-188" edge="1">
          <mxGeometry relative="1" as="geometry">
            <mxPoint x="-210.00000000000045" y="1092.19" as="sourcePoint" />
            <mxPoint x="-144.971428571429" y="1054.9991651109685" as="targetPoint" />
            <Array as="points">
              <mxPoint x="-210" y="1082" />
              <mxPoint x="-170" y="1082" />
            </Array>
          </mxGeometry>
        </mxCell>
        <mxCell id="BaElDOL2xbbSz7ybqqOQ-196" style="edgeStyle=orthogonalEdgeStyle;rounded=0;orthogonalLoop=1;jettySize=auto;html=1;endArrow=circle;endFill=0;endSize=6;startSize=6;" parent="1" source="BaElDOL2xbbSz7ybqqOQ-157" target="BaElDOL2xbbSz7ybqqOQ-161" edge="1">
          <mxGeometry relative="1" as="geometry">
            <mxPoint x="90" y="1320" as="sourcePoint" />
            <mxPoint x="130" y="1320" as="targetPoint" />
            <Array as="points">
              <mxPoint x="80" y="1305" />
              <mxPoint x="80" y="1305" />
            </Array>
          </mxGeometry>
        </mxCell>
        <mxCell id="BaElDOL2xbbSz7ybqqOQ-197" style="edgeStyle=orthogonalEdgeStyle;rounded=0;orthogonalLoop=1;jettySize=auto;html=1;endArrow=circle;endFill=0;endSize=6;startSize=6;" parent="1" source="BaElDOL2xbbSz7ybqqOQ-157" target="BaElDOL2xbbSz7ybqqOQ-163" edge="1">
          <mxGeometry relative="1" as="geometry">
            <mxPoint x="80" y="1349.76" as="sourcePoint" />
            <mxPoint x="120" y="1349.76" as="targetPoint" />
            <Array as="points">
              <mxPoint x="80" y="1350" />
              <mxPoint x="80" y="1350" />
            </Array>
          </mxGeometry>
        </mxCell>
        <mxCell id="BaElDOL2xbbSz7ybqqOQ-198" value="&lt;b&gt;&lt;u&gt;&lt;i&gt;id&lt;/i&gt;&lt;/u&gt;&lt;/b&gt;" style="ellipse;whiteSpace=wrap;html=1;" parent="1" vertex="1">
          <mxGeometry x="-1070" y="1200" width="50" height="30" as="geometry" />
        </mxCell>
        <mxCell id="BaElDOL2xbbSz7ybqqOQ-199" style="edgeStyle=orthogonalEdgeStyle;rounded=0;orthogonalLoop=1;jettySize=auto;html=1;endArrow=oval;endFill=1;endSize=6;startSize=6;" parent="1" source="BaElDOL2xbbSz7ybqqOQ-130" target="BaElDOL2xbbSz7ybqqOQ-198" edge="1">
          <mxGeometry relative="1" as="geometry">
            <mxPoint x="-1050" y="1223.8" as="sourcePoint" />
            <mxPoint x="-941" y="1198.8" as="targetPoint" />
            <Array as="points">
              <mxPoint x="-1045" y="1250" />
              <mxPoint x="-1045" y="1250" />
            </Array>
          </mxGeometry>
        </mxCell>
        <mxCell id="BaElDOL2xbbSz7ybqqOQ-200" style="edgeStyle=orthogonalEdgeStyle;rounded=0;orthogonalLoop=1;jettySize=auto;html=1;endArrow=circle;endFill=0;endSize=6;startSize=6;" parent="1" source="BaElDOL2xbbSz7ybqqOQ-130" target="BaElDOL2xbbSz7ybqqOQ-131" edge="1">
          <mxGeometry relative="1" as="geometry">
            <mxPoint x="-950" y="1255" as="sourcePoint" />
            <mxPoint x="-905" y="1250" as="targetPoint" />
            <Array as="points">
              <mxPoint x="-970" y="1260" />
              <mxPoint x="-970" y="1260" />
            </Array>
          </mxGeometry>
        </mxCell>
        <mxCell id="BaElDOL2xbbSz7ybqqOQ-201" style="edgeStyle=orthogonalEdgeStyle;rounded=0;orthogonalLoop=1;jettySize=auto;html=1;endArrow=circle;endFill=0;endSize=6;startSize=6;" parent="1" source="BaElDOL2xbbSz7ybqqOQ-89" target="BaElDOL2xbbSz7ybqqOQ-139" edge="1">
          <mxGeometry relative="1" as="geometry">
            <mxPoint x="495.5" y="1215" as="sourcePoint" />
            <mxPoint x="480" y="1265" as="targetPoint" />
            <Array as="points">
              <mxPoint x="470" y="1210" />
              <mxPoint x="470" y="1210" />
            </Array>
          </mxGeometry>
        </mxCell>
        <mxCell id="BaElDOL2xbbSz7ybqqOQ-202" style="edgeStyle=orthogonalEdgeStyle;rounded=0;orthogonalLoop=1;jettySize=auto;html=1;endArrow=circle;endFill=0;endSize=6;startSize=6;" parent="1" source="BaElDOL2xbbSz7ybqqOQ-89" target="BaElDOL2xbbSz7ybqqOQ-138" edge="1">
          <mxGeometry relative="1" as="geometry">
            <mxPoint x="479.2" y="1139.72" as="sourcePoint" />
            <mxPoint x="513.2" y="1139.72" as="targetPoint" />
            <Array as="points">
              <mxPoint x="505" y="1190" />
              <mxPoint x="505" y="1205" />
            </Array>
          </mxGeometry>
        </mxCell>
        <mxCell id="BaElDOL2xbbSz7ybqqOQ-203" style="edgeStyle=orthogonalEdgeStyle;rounded=0;orthogonalLoop=1;jettySize=auto;html=1;endArrow=oval;endFill=1;endSize=6;startSize=6;" parent="1" source="BaElDOL2xbbSz7ybqqOQ-89" target="BaElDOL2xbbSz7ybqqOQ-121" edge="1">
          <mxGeometry relative="1" as="geometry">
            <mxPoint x="563.9" y="1000" as="sourcePoint" />
            <mxPoint x="522.9" y="1000" as="targetPoint" />
            <Array as="points">
              <mxPoint x="510" y="1100" />
            </Array>
          </mxGeometry>
        </mxCell>
        <mxCell id="BaElDOL2xbbSz7ybqqOQ-204" value="&lt;span style=&quot;font-size: 16px;&quot;&gt;objetos de valor&lt;/span&gt;" style="ellipse;whiteSpace=wrap;html=1;" parent="1" vertex="1">
          <mxGeometry x="-410" y="1270" width="110" height="50" as="geometry" />
        </mxCell>
        <mxCell id="BaElDOL2xbbSz7ybqqOQ-205" style="edgeStyle=orthogonalEdgeStyle;rounded=0;orthogonalLoop=1;jettySize=auto;html=1;endArrow=circle;endFill=0;endSize=6;startSize=6;" parent="1" source="BaElDOL2xbbSz7ybqqOQ-156" target="BaElDOL2xbbSz7ybqqOQ-204" edge="1">
          <mxGeometry relative="1" as="geometry">
            <mxPoint x="-450" y="1300" as="sourcePoint" />
            <mxPoint x="-405" y="1285" as="targetPoint" />
            <Array as="points" />
          </mxGeometry>
        </mxCell>
        <mxCell id="BaElDOL2xbbSz7ybqqOQ-206" style="edgeStyle=orthogonalEdgeStyle;rounded=0;orthogonalLoop=1;jettySize=auto;html=1;endArrow=circle;endFill=0;endSize=6;startSize=6;" parent="1" target="BaElDOL2xbbSz7ybqqOQ-123" edge="1">
          <mxGeometry relative="1" as="geometry">
            <mxPoint x="1000" y="1102.5" as="sourcePoint" />
            <mxPoint x="1064" y="1082.5" as="targetPoint" />
            <Array as="points">
              <mxPoint x="1033.6" y="1102.5" />
              <mxPoint x="1033.6" y="1082.5" />
            </Array>
          </mxGeometry>
        </mxCell>
        <mxCell id="BaElDOL2xbbSz7ybqqOQ-207" style="edgeStyle=orthogonalEdgeStyle;rounded=0;orthogonalLoop=1;jettySize=auto;html=1;endArrow=circle;endFill=0;endSize=6;startSize=6;" parent="1" source="BaElDOL2xbbSz7ybqqOQ-122" target="BaElDOL2xbbSz7ybqqOQ-124" edge="1">
          <mxGeometry relative="1" as="geometry">
            <mxPoint x="1038.6" y="1127.5" as="sourcePoint" />
            <mxPoint x="1072.6" y="1127.5" as="targetPoint" />
            <Array as="points">
              <mxPoint x="1027.6" y="1137.5" />
              <mxPoint x="1027.6" y="1132.5" />
            </Array>
          </mxGeometry>
        </mxCell>
        <mxCell id="BaElDOL2xbbSz7ybqqOQ-208" style="edgeStyle=orthogonalEdgeStyle;rounded=0;orthogonalLoop=1;jettySize=auto;html=1;endArrow=circle;endFill=0;endSize=6;startSize=6;" parent="1" source="BaElDOL2xbbSz7ybqqOQ-122" target="BaElDOL2xbbSz7ybqqOQ-125" edge="1">
          <mxGeometry relative="1" as="geometry">
            <mxPoint x="1018.6" y="1182.5" as="sourcePoint" />
            <mxPoint x="1073.6" y="1177.5" as="targetPoint" />
            <Array as="points" />
          </mxGeometry>
        </mxCell>
        <mxCell id="BaElDOL2xbbSz7ybqqOQ-209" style="edgeStyle=orthogonalEdgeStyle;rounded=0;orthogonalLoop=1;jettySize=auto;html=1;endArrow=circle;endFill=0;endSize=6;startSize=6;" parent="1" source="BaElDOL2xbbSz7ybqqOQ-122" target="BaElDOL2xbbSz7ybqqOQ-127" edge="1">
          <mxGeometry relative="1" as="geometry">
            <mxPoint x="885" y="1212.5" as="sourcePoint" />
            <mxPoint x="940" y="1207.5" as="targetPoint" />
            <Array as="points">
              <mxPoint x="912.6" y="1227.5" />
              <mxPoint x="912.6" y="1227.5" />
            </Array>
          </mxGeometry>
        </mxCell>
        <mxCell id="BaElDOL2xbbSz7ybqqOQ-210" style="edgeStyle=orthogonalEdgeStyle;rounded=0;orthogonalLoop=1;jettySize=auto;html=1;endArrow=circle;endFill=0;endSize=6;startSize=6;" parent="1" source="BaElDOL2xbbSz7ybqqOQ-122" target="BaElDOL2xbbSz7ybqqOQ-126" edge="1">
          <mxGeometry relative="1" as="geometry">
            <mxPoint x="981.6" y="1207.5" as="sourcePoint" />
            <mxPoint x="958.6" y="1232.5" as="targetPoint" />
            <Array as="points">
              <mxPoint x="981.6" y="1212.5" />
            </Array>
          </mxGeometry>
        </mxCell>
        <mxCell id="BaElDOL2xbbSz7ybqqOQ-211" style="edgeStyle=orthogonalEdgeStyle;rounded=0;orthogonalLoop=1;jettySize=auto;html=1;endArrow=oval;endFill=1;endSize=6;startSize=6;" parent="1" source="BaElDOL2xbbSz7ybqqOQ-122" target="BaElDOL2xbbSz7ybqqOQ-128" edge="1">
          <mxGeometry relative="1" as="geometry">
            <mxPoint x="928.6" y="1087.5" as="sourcePoint" />
            <mxPoint x="982.6" y="1057.5" as="targetPoint" />
            <Array as="points">
              <mxPoint x="928.6" y="1067.5" />
              <mxPoint x="961.6" y="1067.5" />
            </Array>
          </mxGeometry>
        </mxCell>
        <mxCell id="BaElDOL2xbbSz7ybqqOQ-212" value="&lt;b&gt;&lt;u&gt;id&lt;/u&gt;&lt;/b&gt;" style="ellipse;whiteSpace=wrap;html=1;" parent="1" vertex="1">
          <mxGeometry x="190" y="1410" width="58.6" height="40" as="geometry" />
        </mxCell>
        <mxCell id="BaElDOL2xbbSz7ybqqOQ-213" value="&lt;b&gt;&lt;u&gt;id&lt;/u&gt;&lt;/b&gt;" style="ellipse;whiteSpace=wrap;html=1;" parent="1" vertex="1">
          <mxGeometry x="956.75" y="1457.5" width="58.6" height="40" as="geometry" />
        </mxCell>
        <mxCell id="BaElDOL2xbbSz7ybqqOQ-214" value="&lt;b&gt;&lt;u&gt;id&lt;/u&gt;&lt;/b&gt;" style="ellipse;whiteSpace=wrap;html=1;" parent="1" vertex="1">
          <mxGeometry x="966.4" y="1705" width="58.6" height="40" as="geometry" />
        </mxCell>
        <mxCell id="BaElDOL2xbbSz7ybqqOQ-215" style="edgeStyle=orthogonalEdgeStyle;rounded=0;orthogonalLoop=1;jettySize=auto;html=1;endArrow=none;endFill=0;" parent="1" source="BaElDOL2xbbSz7ybqqOQ-89" target="BaElDOL2xbbSz7ybqqOQ-219" edge="1">
          <mxGeometry relative="1" as="geometry">
            <mxPoint x="486" y="1155" as="sourcePoint" />
          </mxGeometry>
        </mxCell>
        <mxCell id="BaElDOL2xbbSz7ybqqOQ-216" value="(1:1)" style="edgeLabel;html=1;align=center;verticalAlign=middle;resizable=0;points=[];fontSize=18;fontStyle=1" parent="BaElDOL2xbbSz7ybqqOQ-215" vertex="1" connectable="0">
          <mxGeometry x="-0.8464" relative="1" as="geometry">
            <mxPoint x="24" as="offset" />
          </mxGeometry>
        </mxCell>
        <mxCell id="BaElDOL2xbbSz7ybqqOQ-217" style="edgeStyle=orthogonalEdgeStyle;rounded=0;orthogonalLoop=1;jettySize=auto;html=1;exitX=1;exitY=0.5;exitDx=0;exitDy=0;endArrow=none;endFill=0;" parent="1" source="BaElDOL2xbbSz7ybqqOQ-219" target="BaElDOL2xbbSz7ybqqOQ-122" edge="1">
          <mxGeometry relative="1" as="geometry">
            <mxPoint x="810.5" y="1157.5142857142857" as="targetPoint" />
          </mxGeometry>
        </mxCell>
        <mxCell id="BaElDOL2xbbSz7ybqqOQ-218" value="(1:n)" style="edgeLabel;html=1;align=center;verticalAlign=middle;resizable=0;points=[];fontStyle=1;fontSize=18;" parent="BaElDOL2xbbSz7ybqqOQ-217" vertex="1" connectable="0">
          <mxGeometry x="0.5335" y="2" relative="1" as="geometry">
            <mxPoint x="-15" y="2" as="offset" />
          </mxGeometry>
        </mxCell>
        <mxCell id="BaElDOL2xbbSz7ybqqOQ-219" value="&lt;b&gt;&lt;font style=&quot;font-size: 16px;&quot;&gt;tiene&lt;/font&gt;&lt;/b&gt;" style="rhombus;whiteSpace=wrap;html=1;" parent="1" vertex="1">
          <mxGeometry x="620" y="1105" width="89" height="80" as="geometry" />
        </mxCell>
        <mxCell id="BaElDOL2xbbSz7ybqqOQ-222" style="edgeStyle=orthogonalEdgeStyle;rounded=0;orthogonalLoop=1;jettySize=auto;html=1;endArrow=circle;endFill=0;endSize=6;startSize=6;" parent="1" source="BaElDOL2xbbSz7ybqqOQ-74" target="BaElDOL2xbbSz7ybqqOQ-80" edge="1">
          <mxGeometry relative="1" as="geometry">
            <mxPoint x="280" y="1540" as="sourcePoint" />
            <mxPoint x="320" y="1540" as="targetPoint" />
            <Array as="points">
              <mxPoint x="280" y="1493" />
              <mxPoint x="280" y="1493" />
            </Array>
          </mxGeometry>
        </mxCell>
        <mxCell id="BaElDOL2xbbSz7ybqqOQ-223" style="edgeStyle=orthogonalEdgeStyle;rounded=0;orthogonalLoop=1;jettySize=auto;html=1;endArrow=oval;endFill=1;endSize=6;startSize=6;" parent="1" source="BaElDOL2xbbSz7ybqqOQ-74" target="BaElDOL2xbbSz7ybqqOQ-212" edge="1">
          <mxGeometry relative="1" as="geometry">
            <mxPoint x="260" y="1445" as="sourcePoint" />
            <mxPoint x="284" y="1415" as="targetPoint" />
            <Array as="points">
              <mxPoint x="284" y="1445" />
              <mxPoint x="284" y="1430" />
            </Array>
          </mxGeometry>
        </mxCell>
        <mxCell id="BaElDOL2xbbSz7ybqqOQ-224" value="&lt;font&gt;(1:1)&lt;/font&gt;" style="edgeLabel;html=1;align=center;verticalAlign=middle;resizable=0;points=[];fontSize=18;fontStyle=1" parent="1" vertex="1" connectable="0">
          <mxGeometry x="511.25" y="1457.5" as="geometry" />
        </mxCell>
        <mxCell id="BaElDOL2xbbSz7ybqqOQ-225" value="&lt;font&gt;(0:n)&lt;/font&gt;" style="edgeLabel;html=1;align=center;verticalAlign=middle;resizable=0;points=[];fontSize=18;fontStyle=1" parent="1" vertex="1" connectable="0">
          <mxGeometry x="700" y="1457.5" as="geometry" />
        </mxCell>
        <mxCell id="BaElDOL2xbbSz7ybqqOQ-226" value="&lt;font&gt;(1:1)&lt;/font&gt;" style="edgeLabel;html=1;align=center;verticalAlign=middle;resizable=0;points=[];fontSize=18;fontStyle=1" parent="1" vertex="1" connectable="0">
          <mxGeometry x="826.4" y="1540" as="geometry" />
        </mxCell>
        <mxCell id="BaElDOL2xbbSz7ybqqOQ-227" value="&lt;font&gt;(0:n)&lt;/font&gt;" style="edgeLabel;html=1;align=center;verticalAlign=middle;resizable=0;points=[];fontSize=18;fontStyle=1" parent="1" vertex="1" connectable="0">
          <mxGeometry x="826.4" y="1680" as="geometry" />
        </mxCell>
        <mxCell id="BaElDOL2xbbSz7ybqqOQ-228" style="edgeStyle=orthogonalEdgeStyle;rounded=0;orthogonalLoop=1;jettySize=auto;html=1;endArrow=circle;endFill=0;endSize=6;startSize=6;" parent="1" source="BaElDOL2xbbSz7ybqqOQ-72" target="BaElDOL2xbbSz7ybqqOQ-81" edge="1">
          <mxGeometry relative="1" as="geometry">
            <mxPoint x="690" y="1400" as="sourcePoint" />
            <mxPoint x="745" y="1380.5" as="targetPoint" />
            <Array as="points">
              <mxPoint x="826" y="1390" />
              <mxPoint x="786" y="1390" />
            </Array>
          </mxGeometry>
        </mxCell>
        <mxCell id="BaElDOL2xbbSz7ybqqOQ-229" style="edgeStyle=orthogonalEdgeStyle;rounded=0;orthogonalLoop=1;jettySize=auto;html=1;endArrow=circle;endFill=0;endSize=6;startSize=6;" parent="1" source="BaElDOL2xbbSz7ybqqOQ-72" target="BaElDOL2xbbSz7ybqqOQ-82" edge="1">
          <mxGeometry relative="1" as="geometry">
            <mxPoint x="921.39" y="1410" as="sourcePoint" />
            <mxPoint x="881.39" y="1375" as="targetPoint" />
            <Array as="points">
              <mxPoint x="900" y="1390" />
              <mxPoint x="900" y="1390" />
            </Array>
          </mxGeometry>
        </mxCell>
        <mxCell id="BaElDOL2xbbSz7ybqqOQ-230" style="edgeStyle=orthogonalEdgeStyle;rounded=0;orthogonalLoop=1;jettySize=auto;html=1;endArrow=circle;endFill=0;endSize=6;startSize=6;" parent="1" source="BaElDOL2xbbSz7ybqqOQ-72" target="BaElDOL2xbbSz7ybqqOQ-83" edge="1">
          <mxGeometry relative="1" as="geometry">
            <mxPoint x="960" y="1428" as="sourcePoint" />
            <mxPoint x="960" y="1390" as="targetPoint" />
            <Array as="points">
              <mxPoint x="940" y="1410" />
              <mxPoint x="940" y="1410" />
            </Array>
          </mxGeometry>
        </mxCell>
        <mxCell id="BaElDOL2xbbSz7ybqqOQ-231" style="edgeStyle=orthogonalEdgeStyle;rounded=0;orthogonalLoop=1;jettySize=auto;html=1;endArrow=oval;endFill=1;endSize=6;startSize=6;" parent="1" source="BaElDOL2xbbSz7ybqqOQ-72" target="BaElDOL2xbbSz7ybqqOQ-213" edge="1">
          <mxGeometry relative="1" as="geometry">
            <mxPoint x="1037" y="1535" as="sourcePoint" />
            <mxPoint x="990" y="1520" as="targetPoint" />
            <Array as="points">
              <mxPoint x="950" y="1490" />
              <mxPoint x="950" y="1480" />
            </Array>
          </mxGeometry>
        </mxCell>
        <mxCell id="BaElDOL2xbbSz7ybqqOQ-232" style="edgeStyle=orthogonalEdgeStyle;rounded=0;orthogonalLoop=1;jettySize=auto;html=1;endArrow=oval;endFill=1;endSize=6;startSize=6;" parent="1" source="BaElDOL2xbbSz7ybqqOQ-75" target="BaElDOL2xbbSz7ybqqOQ-214" edge="1">
          <mxGeometry relative="1" as="geometry">
            <mxPoint x="921.4" y="1735" as="sourcePoint" />
            <mxPoint x="957.4" y="1725" as="targetPoint" />
            <Array as="points">
              <mxPoint x="950" y="1735" />
              <mxPoint x="950" y="1725" />
            </Array>
          </mxGeometry>
        </mxCell>
        <mxCell id="BaElDOL2xbbSz7ybqqOQ-233" style="edgeStyle=orthogonalEdgeStyle;rounded=0;orthogonalLoop=1;jettySize=auto;html=1;endArrow=circle;endFill=0;endSize=6;startSize=6;" parent="1" source="BaElDOL2xbbSz7ybqqOQ-75" target="BaElDOL2xbbSz7ybqqOQ-84" edge="1">
          <mxGeometry relative="1" as="geometry">
            <mxPoint x="921.4" y="1779.83" as="sourcePoint" />
            <mxPoint x="957.4" y="1779.83" as="targetPoint" />
            <Array as="points">
              <mxPoint x="930" y="1780" />
              <mxPoint x="930" y="1780" />
            </Array>
          </mxGeometry>
        </mxCell>
        <mxCell id="TSI0O67SJkjbX8_BzPh6-1" value="VIN" style="ellipse;whiteSpace=wrap;html=1;" vertex="1" parent="1">
          <mxGeometry x="179.3" y="1531.2" width="60.7" height="25" as="geometry" />
        </mxCell>
        <mxCell id="TSI0O67SJkjbX8_BzPh6-2" style="edgeStyle=orthogonalEdgeStyle;rounded=0;orthogonalLoop=1;jettySize=auto;html=1;endArrow=circle;endFill=0;endSize=6;startSize=6;" edge="1" parent="1" source="BaElDOL2xbbSz7ybqqOQ-74" target="TSI0O67SJkjbX8_BzPh6-1">
          <mxGeometry relative="1" as="geometry">
            <mxPoint x="296" y="1543.54" as="sourcePoint" />
            <mxPoint x="249" y="1543.54" as="targetPoint" />
            <Array as="points">
              <mxPoint x="306" y="1540" />
            </Array>
          </mxGeometry>
        </mxCell>
        <mxCell id="TSI0O67SJkjbX8_BzPh6-3" value="&lt;font style=&quot;font-size: 24px;&quot;&gt;&lt;b&gt;&lt;i&gt;servicio&lt;/i&gt;&lt;/b&gt;&lt;/font&gt;" style="whiteSpace=wrap;html=1;align=center;" vertex="1" parent="1">
          <mxGeometry x="-140.5" y="500" width="190" height="110" as="geometry" />
        </mxCell>
        <mxCell id="TSI0O67SJkjbX8_BzPh6-6" style="edgeStyle=orthogonalEdgeStyle;rounded=0;orthogonalLoop=1;jettySize=auto;html=1;entryX=0.5;entryY=1;entryDx=0;entryDy=0;endArrow=none;endFill=0;" edge="1" parent="1" target="TSI0O67SJkjbX8_BzPh6-10" source="TSI0O67SJkjbX8_BzPh6-19">
          <mxGeometry relative="1" as="geometry">
            <mxPoint x="-46" y="847.5" as="sourcePoint" />
          </mxGeometry>
        </mxCell>
        <mxCell id="TSI0O67SJkjbX8_BzPh6-7" value="&lt;font&gt;(1:n)&lt;/font&gt;" style="edgeLabel;html=1;align=center;verticalAlign=middle;resizable=0;points=[];fontStyle=1;fontSize=18;" vertex="1" connectable="0" parent="TSI0O67SJkjbX8_BzPh6-6">
          <mxGeometry x="-0.7395" relative="1" as="geometry">
            <mxPoint y="-15" as="offset" />
          </mxGeometry>
        </mxCell>
        <mxCell id="TSI0O67SJkjbX8_BzPh6-8" style="edgeStyle=orthogonalEdgeStyle;rounded=0;orthogonalLoop=1;jettySize=auto;html=1;exitX=0.5;exitY=0;exitDx=0;exitDy=0;endArrow=none;endFill=0;" edge="1" parent="1" source="TSI0O67SJkjbX8_BzPh6-10" target="TSI0O67SJkjbX8_BzPh6-3">
          <mxGeometry relative="1" as="geometry">
            <mxPoint x="-45" y="612.5" as="targetPoint" />
          </mxGeometry>
        </mxCell>
        <mxCell id="TSI0O67SJkjbX8_BzPh6-9" value="&lt;font&gt;(1:n)&lt;/font&gt;" style="edgeLabel;html=1;align=center;verticalAlign=middle;resizable=0;points=[];fontSize=18;fontStyle=1" vertex="1" connectable="0" parent="TSI0O67SJkjbX8_BzPh6-8">
          <mxGeometry x="0.7414" y="-2" relative="1" as="geometry">
            <mxPoint x="-2" y="25" as="offset" />
          </mxGeometry>
        </mxCell>
        <mxCell id="TSI0O67SJkjbX8_BzPh6-10" value="&lt;b&gt;&lt;font style=&quot;font-size: 16px;&quot;&gt;realiza&lt;/font&gt;&lt;/b&gt;" style="rhombus;whiteSpace=wrap;html=1;" vertex="1" parent="1">
          <mxGeometry x="-90" y="692.5" width="89" height="80" as="geometry" />
        </mxCell>
        <mxCell id="TSI0O67SJkjbX8_BzPh6-11" value="nombre" style="ellipse;whiteSpace=wrap;html=1;" vertex="1" parent="1">
          <mxGeometry x="89.05000000000001" y="510" width="80.5" height="40" as="geometry" />
        </mxCell>
        <mxCell id="TSI0O67SJkjbX8_BzPh6-14" value="check" style="ellipse;whiteSpace=wrap;html=1;" vertex="1" parent="1">
          <mxGeometry x="50.00000000000002" y="695" width="80.5" height="40" as="geometry" />
        </mxCell>
        <mxCell id="TSI0O67SJkjbX8_BzPh6-15" style="edgeStyle=orthogonalEdgeStyle;rounded=0;orthogonalLoop=1;jettySize=auto;html=1;endArrow=circle;endFill=0;endSize=6;startSize=6;" edge="1" parent="1" source="TSI0O67SJkjbX8_BzPh6-10" target="TSI0O67SJkjbX8_BzPh6-14">
          <mxGeometry relative="1" as="geometry">
            <mxPoint x="0.19999999999998863" y="701" as="sourcePoint" />
            <mxPoint x="64.19999999999999" y="701" as="targetPoint" />
            <Array as="points" />
          </mxGeometry>
        </mxCell>
        <mxCell id="TSI0O67SJkjbX8_BzPh6-16" style="edgeStyle=orthogonalEdgeStyle;rounded=0;orthogonalLoop=1;jettySize=auto;html=1;endArrow=circle;endFill=0;endSize=6;startSize=6;" edge="1" parent="1" source="TSI0O67SJkjbX8_BzPh6-3" target="TSI0O67SJkjbX8_BzPh6-11">
          <mxGeometry relative="1" as="geometry">
            <mxPoint x="48.80000000000001" y="528" as="sourcePoint" />
            <mxPoint x="99.80000000000001" y="510" as="targetPoint" />
            <Array as="points" />
          </mxGeometry>
        </mxCell>
        <mxCell id="TSI0O67SJkjbX8_BzPh6-17" value="&lt;b&gt;&lt;u&gt;id&lt;/u&gt;&lt;/b&gt;" style="ellipse;whiteSpace=wrap;html=1;" vertex="1" parent="1">
          <mxGeometry x="89.05000000000001" y="450" width="49.75" height="40" as="geometry" />
        </mxCell>
        <mxCell id="TSI0O67SJkjbX8_BzPh6-18" style="edgeStyle=orthogonalEdgeStyle;rounded=0;orthogonalLoop=1;jettySize=auto;html=1;endArrow=oval;endFill=1;endSize=6;startSize=6;labelBackgroundColor=#000000;labelBorderColor=none;strokeColor=light-dark(#000000, #281d00);anchorPointDirection=0;startFillColor=#000000;endFillColor=#000000;snapToPoint=0;fixDash=0;strokeOpacity=100;fillOpacity=100;" edge="1" parent="1" source="TSI0O67SJkjbX8_BzPh6-3" target="TSI0O67SJkjbX8_BzPh6-17">
          <mxGeometry relative="1" as="geometry">
            <mxPoint x="-0.19999999999998863" y="472.5" as="sourcePoint" />
            <mxPoint x="98.80000000000001" y="402.5" as="targetPoint" />
            <Array as="points">
              <mxPoint x="30" y="470" />
            </Array>
          </mxGeometry>
        </mxCell>
        <mxCell id="TSI0O67SJkjbX8_BzPh6-19" value="&lt;font style=&quot;font-size: 24px;&quot;&gt;&lt;b&gt;&lt;i&gt;orden de trabajo&lt;/i&gt;&lt;/b&gt;&lt;/font&gt;" style="whiteSpace=wrap;html=1;align=center;" vertex="1" parent="1">
          <mxGeometry x="-140" y="850" width="190" height="110" as="geometry" />
        </mxCell>
        <mxCell id="TSI0O67SJkjbX8_BzPh6-20" style="edgeStyle=orthogonalEdgeStyle;rounded=0;orthogonalLoop=1;jettySize=auto;html=1;endArrow=none;endFill=0;" edge="1" parent="1" target="TSI0O67SJkjbX8_BzPh6-24" source="TSI0O67SJkjbX8_BzPh6-19">
          <mxGeometry relative="1" as="geometry">
            <mxPoint x="-130" y="1000" as="sourcePoint" />
            <Array as="points">
              <mxPoint x="-45" y="1000" />
            </Array>
          </mxGeometry>
        </mxCell>
        <mxCell id="TSI0O67SJkjbX8_BzPh6-21" value="(1:1)" style="edgeLabel;html=1;align=center;verticalAlign=middle;resizable=0;points=[];fontSize=18;fontStyle=1" vertex="1" connectable="0" parent="TSI0O67SJkjbX8_BzPh6-20">
          <mxGeometry x="-0.8464" relative="1" as="geometry">
            <mxPoint x="35" y="23" as="offset" />
          </mxGeometry>
        </mxCell>
        <mxCell id="TSI0O67SJkjbX8_BzPh6-22" style="edgeStyle=orthogonalEdgeStyle;rounded=0;orthogonalLoop=1;jettySize=auto;html=1;exitX=1;exitY=0.5;exitDx=0;exitDy=0;endArrow=none;endFill=0;" edge="1" parent="1" source="TSI0O67SJkjbX8_BzPh6-24" target="BaElDOL2xbbSz7ybqqOQ-89">
          <mxGeometry relative="1" as="geometry">
            <mxPoint x="336" y="1000" as="targetPoint" />
            <Array as="points">
              <mxPoint x="300" y="1000" />
            </Array>
          </mxGeometry>
        </mxCell>
        <mxCell id="TSI0O67SJkjbX8_BzPh6-23" value="(1:1)" style="edgeLabel;html=1;align=center;verticalAlign=middle;resizable=0;points=[];fontStyle=1;fontSize=18;" vertex="1" connectable="0" parent="TSI0O67SJkjbX8_BzPh6-22">
          <mxGeometry x="0.5335" y="2" relative="1" as="geometry">
            <mxPoint x="-6" y="1" as="offset" />
          </mxGeometry>
        </mxCell>
        <mxCell id="TSI0O67SJkjbX8_BzPh6-24" value="&lt;b&gt;&lt;font style=&quot;font-size: 16px;&quot;&gt;emite&lt;/font&gt;&lt;/b&gt;" style="rhombus;whiteSpace=wrap;html=1;" vertex="1" parent="1">
          <mxGeometry x="125.49999999999999" y="960" width="89" height="80" as="geometry" />
        </mxCell>
        <mxCell id="TSI0O67SJkjbX8_BzPh6-25" value="fecha estimada de entrega" style="ellipse;whiteSpace=wrap;html=1;" vertex="1" parent="1">
          <mxGeometry x="79.5" y="880" width="135" height="40" as="geometry" />
        </mxCell>
        <mxCell id="TSI0O67SJkjbX8_BzPh6-26" value="hora estimada de entraga" style="ellipse;whiteSpace=wrap;html=1;" vertex="1" parent="1">
          <mxGeometry x="230" y="900" width="105" height="50" as="geometry" />
        </mxCell>
        <mxCell id="TSI0O67SJkjbX8_BzPh6-27" style="edgeStyle=orthogonalEdgeStyle;rounded=0;orthogonalLoop=1;jettySize=auto;html=1;endArrow=circle;endFill=0;endSize=6;startSize=6;" edge="1" parent="1" source="TSI0O67SJkjbX8_BzPh6-24" target="TSI0O67SJkjbX8_BzPh6-25">
          <mxGeometry relative="1" as="geometry">
            <mxPoint x="81.93" y="959.29" as="sourcePoint" />
            <mxPoint x="145.93" y="959.29" as="targetPoint" />
            <Array as="points">
              <mxPoint x="160" y="970" />
              <mxPoint x="160" y="970" />
            </Array>
          </mxGeometry>
        </mxCell>
        <mxCell id="TSI0O67SJkjbX8_BzPh6-28" style="edgeStyle=orthogonalEdgeStyle;rounded=0;orthogonalLoop=1;jettySize=auto;html=1;endArrow=circle;endFill=0;endSize=6;startSize=6;" edge="1" parent="1" source="TSI0O67SJkjbX8_BzPh6-24" target="TSI0O67SJkjbX8_BzPh6-26">
          <mxGeometry relative="1" as="geometry">
            <mxPoint x="240" y="976" as="sourcePoint" />
            <mxPoint x="240" y="935" as="targetPoint" />
            <Array as="points">
              <mxPoint x="282" y="976" />
            </Array>
          </mxGeometry>
        </mxCell>
        <mxCell id="TSI0O67SJkjbX8_BzPh6-29" value="&lt;b&gt;&lt;u&gt;id&lt;/u&gt;&lt;/b&gt;" style="ellipse;whiteSpace=wrap;html=1;" vertex="1" parent="1">
          <mxGeometry x="20.250000000000007" y="800" width="49.75" height="40" as="geometry" />
        </mxCell>
        <mxCell id="TSI0O67SJkjbX8_BzPh6-30" style="edgeStyle=orthogonalEdgeStyle;rounded=0;orthogonalLoop=1;jettySize=auto;html=1;endArrow=oval;endFill=1;endSize=6;startSize=6;labelBackgroundColor=#000000;labelBorderColor=none;strokeColor=light-dark(#000000, #281d00);anchorPointDirection=0;startFillColor=#000000;endFillColor=#000000;snapToPoint=0;fixDash=0;strokeOpacity=100;fillOpacity=100;" edge="1" parent="1" target="TSI0O67SJkjbX8_BzPh6-29" source="TSI0O67SJkjbX8_BzPh6-19">
          <mxGeometry relative="1" as="geometry">
            <mxPoint x="-8.824285714285505" y="850" as="sourcePoint" />
            <mxPoint x="59.60000000000001" y="752.5" as="targetPoint" />
            <Array as="points">
              <mxPoint x="-9" y="820" />
            </Array>
          </mxGeometry>
        </mxCell>
      </root>
    </mxGraphModel>
  </diagram>
</mxfile>
